<svg width="50" height="50" viewBox="0 0 50 50" fill="none" xmlns="http://www.w3.org/2000/svg">
<path d="M50 25C50 38.8071 38.8071 50 25 50C11.1929 50 0 38.8071 0 25C0 11.1929 11.1929 0 25 0C38.8071 0 50 11.1929 50 25Z" fill="#E3131B"/>
<path d="M18.8009 33.7846L22.6941 12.3634H25.3676L26.6375 14.9032L22.4435 36.692H19.5194L18.8009 33.7846ZM18.0657 12.3634L21.2905 33.8849L20.3715 36.692H17.0464L12.819 12.3634H18.0657ZM28.6259 33.7846L31.8341 12.3634H37.0474L32.8199 36.692H29.5282L28.6259 33.7846ZM27.1555 12.3634L31.1323 33.9016L30.347 36.692H27.4228L23.1954 14.8697L24.5154 12.3634H27.1555Z" fill="#F6F4F3"/>
</svg>
